<svg width="85" height="62" viewBox="0 0 85 62" fill="none" xmlns="http://www.w3.org/2000/svg">
<path d="M74.4998 0.000113374H66.2003C65.6766 -0.00443258 65.1607 0.127803 64.7037 0.383725C64.2467 0.639647 63.8644 1.01039 63.5946 1.45933L60.7805 6.17575L58.4483 10.0844H26.4495L28.7817 13.993L31.1008 17.9017C31.5154 18.5963 32.1031 19.1715 32.8064 19.5711C33.5097 19.9708 34.3049 20.1811 35.1138 20.1817H49.7973C50.6062 20.1811 51.401 19.9708 52.1044 19.5711C52.8077 19.1715 53.3953 18.5963 53.8099 17.9017L56.1291 13.993L58.4613 10.0844H69.9006C71.2149 10.0878 72.474 10.6123 73.4021 11.5429C74.3302 12.4734 74.8516 13.7341 74.8516 15.0484V46.6432C74.8516 47.2934 74.7235 47.9372 74.4747 48.5379C74.2259 49.1385 73.8612 49.6843 73.4015 50.144C72.9417 50.6038 72.3958 50.9684 71.7951 51.2173C71.1945 51.4661 70.5508 51.5941 69.9006 51.5941H58.4613L56.1291 47.6855L53.8099 43.7768C53.3953 43.0822 52.8077 42.5071 52.1044 42.1074C51.401 41.7078 50.6062 41.4974 49.7973 41.4968H35.1138C34.3049 41.4974 33.5097 41.7078 32.8064 42.1074C32.1031 42.5071 31.5154 43.0822 31.1008 43.7768L28.7817 47.6855L26.4495 51.5941H58.4483L60.7805 55.5028L63.5946 60.2192C63.8644 60.6681 64.2467 61.0389 64.7037 61.2948C65.1607 61.5507 65.6766 61.683 66.2003 61.6784H74.4998C77.2642 61.6784 79.9152 60.5803 81.8699 58.6256C83.8246 56.6709 84.9229 54.0197 84.9229 51.2553V10.3971C84.916 7.63722 83.8146 4.99278 81.8606 3.04372C79.9067 1.09465 77.2597 0.00010475 74.4998 0.000113374Z" fill="white"/>
<path d="M15.035 51.6224C13.7219 51.6224 12.4626 51.1008 11.5341 50.1723C10.6057 49.2438 10.0843 47.9845 10.0843 46.6715V15.0766C10.0843 13.7624 10.6054 12.5017 11.5335 11.5712C12.4616 10.6406 13.7207 10.1161 15.035 10.1127H26.4874L24.1552 6.20404L21.341 1.48762C21.0712 1.03868 20.6889 0.667936 20.2319 0.412015C19.7749 0.156093 19.2591 0.0238572 18.7353 0.0284032H10.4231C7.65871 0.0284032 5.0074 1.12653 3.05271 3.08123C1.09801 5.03593 3.67119e-05 7.68708 3.67119e-05 10.4514V51.3228C-0.00360682 52.6904 0.263991 54.0452 0.787299 55.3087C1.31061 56.5722 2.07903 57.7195 3.04857 58.684C4.01183 59.6553 5.15898 60.4251 6.42283 60.9486C7.68667 61.472 9.0421 61.7386 10.41 61.7328H18.7614C19.2851 61.7373 19.801 61.6051 20.258 61.3492C20.715 61.0933 21.0973 60.7225 21.3671 60.2735L24.1812 55.5571L26.5134 51.6485H15.0611L15.035 51.6224Z" fill="white"/>
</svg>
